<svg width="242" height="136" viewBox="0 0 242 136" fill="none" xmlns="http://www.w3.org/2000/svg">
<path d="M235.187 1H144.813C141.602 1 139 3.60237 139 6.81255V129.112C139 132.322 141.602 134.925 144.813 134.925H235.187C238.398 134.925 241 132.322 241 129.112V6.81255C241 3.60237 238.398 1 235.187 1Z" fill="#C2C1C1" stroke="#AFAEAE" stroke-width="2" stroke-miterlimit="10" stroke-linecap="round"/>
<path d="M226.72 15.1035C229.295 15.1035 231.382 13.0163 231.382 10.4416C231.382 7.86696 229.295 5.77979 226.72 5.77979C224.146 5.77979 222.059 7.86696 222.059 10.4416C222.059 13.0163 224.146 15.1035 226.72 15.1035Z" fill="#C2C1C1" stroke="#8D8E8E" stroke-miterlimit="10" stroke-linecap="round"/>
<path d="M226.718 10.9426C226.995 10.9426 227.22 10.7181 227.22 10.441C227.22 10.164 226.995 9.93945 226.718 9.93945C226.441 9.93945 226.217 10.164 226.217 10.441C226.217 10.7181 226.441 10.9426 226.718 10.9426Z" fill="#C2C1C1" stroke="#555657" stroke-miterlimit="10" stroke-linecap="round"/>
<path d="M192.641 63.4623C192.641 63.4623 188.688 59.5086 183.967 63.4623C179.246 67.416 186.239 77.9789 186.239 77.9789C186.239 77.9789 189.16 80.8114 190.281 77.9789C190.281 77.9789 191.963 80.959 193.851 79.2477C195.739 77.5363 197.244 74.0252 197.244 74.0252C197.244 74.0252 188.393 70.8091 197.244 66.9734C197.244 66.9734 199.693 60.3937 192.641 63.4918V63.4623Z" fill="#231F20" stroke="#231F20" stroke-miterlimit="10" stroke-linecap="round"/>
<path d="M191.136 56.1455C191.136 56.1455 193.378 57.5618 192.936 60.3648C192.493 63.1678 191.136 56.1455 191.136 56.1455Z" fill="#231F20" stroke="#231F20" stroke-miterlimit="10" stroke-linecap="round"/>
<path d="M115.237 4.13837C115.237 4.13837 112.425 0.692225 110.655 3.0124C108.885 5.33257 111.761 7.31155 111.761 7.31155" fill="#555657"/>
<path d="M115.237 4.13837C115.237 4.13837 112.425 0.692225 110.655 3.0124C108.885 5.33257 111.761 7.31155 111.761 7.31155" stroke="#C2C1C1" stroke-width="0.5" stroke-miterlimit="10"/>
<path d="M111.222 8.84833C111.222 8.84833 108.409 5.40219 106.639 7.72236C104.869 10.0425 107.745 12.0215 107.745 12.0215" fill="#555657"/>
<path d="M111.222 8.84833C111.222 8.84833 108.409 5.40219 106.639 7.72236C104.869 10.0425 107.745 12.0215 107.745 12.0215" stroke="#C2C1C1" stroke-width="0.5" stroke-miterlimit="10"/>
<path d="M107.114 12.8732C107.114 12.8732 104.302 9.42709 102.532 11.7473C100.762 14.0674 103.638 16.0464 103.638 16.0464" fill="#555657"/>
<path d="M107.114 12.8732C107.114 12.8732 104.302 9.42709 102.532 11.7473C100.762 14.0674 103.638 16.0464 103.638 16.0464" stroke="#C2C1C1" stroke-width="0.5" stroke-miterlimit="10"/>
<path d="M116.279 28.0578C116.279 28.0578 119.124 31.5039 120.799 28.8084C122.474 26.1129 119.977 25.0552 118.776 24.5093" fill="#555657"/>
<path d="M116.279 28.0578C116.279 28.0578 119.124 31.5039 120.799 28.8084C122.474 26.1129 119.977 25.0552 118.776 24.5093" stroke="#C2C1C1" stroke-width="0.5" stroke-miterlimit="10"/>
<path d="M120.482 22.632C120.482 22.632 123.327 26.0781 125.002 23.3826C126.677 20.6871 124.18 19.6294 122.979 19.0835" fill="#555657"/>
<path d="M120.482 22.632C120.482 22.632 123.327 26.0781 125.002 23.3826C126.677 20.6871 124.18 19.6294 122.979 19.0835" stroke="#C2C1C1" stroke-width="0.5" stroke-miterlimit="10"/>
<path d="M124.655 18.6061C124.655 18.6061 127.5 22.0523 129.175 19.3568C130.85 16.6613 128.353 15.6035 127.152 15.0576" fill="#555657"/>
<path d="M124.655 18.6061C124.655 18.6061 127.5 22.0523 129.175 19.3568C130.85 16.6613 128.353 15.6035 127.152 15.0576" stroke="#C2C1C1" stroke-width="0.5" stroke-miterlimit="10"/>
<path d="M72.5394 52.9649C72.5394 52.9649 58.4758 35.7001 46.182 54.3638C46.182 54.3638 44.1594 65.8965 36.6693 66.8518C29.1793 67.8072 -1.09699 71.6628 1.11526 98.3448C3.29591 125.027 35.2472 137.515 44.0014 134.58C44.0014 134.58 59.9612 134.137 66.8824 108.956C66.8824 108.956 67.6093 94.6939 77.2484 92.2373C86.8875 89.7806 92.2285 72.2087 80.3772 62.2115C79.0498 60.3349 75.4154 56.3087 72.6027 52.9649H72.5394Z" fill="#BA6028" stroke="#231F20" stroke-width="2" stroke-miterlimit="10"/>
<path d="M38.756 116.293L42.9593 111.959L23.3966 91.7603L19.1934 96.1276L38.756 116.293Z" stroke="#FCB316" stroke-linecap="round" stroke-linejoin="round"/>
<path d="M54.5271 92.0666C60.0077 92.0666 64.4506 87.5754 64.4506 82.0352C64.4506 76.4951 60.0077 72.0039 54.5271 72.0039C49.0464 72.0039 44.6035 76.4951 44.6035 82.0352C44.6035 87.5754 49.0464 92.0666 54.5271 92.0666Z" fill="#894516" stroke="#FCB316" stroke-linecap="round" stroke-linejoin="round"/>
<path d="M54.5259 94.5229C61.2981 94.5229 66.7881 88.9318 66.7881 82.0349C66.7881 75.1379 61.2981 69.5469 54.5259 69.5469C47.7536 69.5469 42.2637 75.1379 42.2637 82.0349C42.2637 88.9318 47.7536 94.5229 54.5259 94.5229Z" stroke="#FCB316" stroke-linecap="round" stroke-linejoin="round"/>
<path d="M57.4955 69.1039L103.447 22.1886C103.447 22.1886 105.059 18.5378 103.795 16.5588C103.795 16.5588 111.538 10.2125 116.436 1C116.436 1 127.245 4.24142 129.109 14.1363C129.109 14.1363 119.281 21.8816 115.899 27.6138C115.899 27.6138 112.265 27.3749 110.274 29.3198C108.282 31.2646 66.1233 76.2692 66.1233 76.2692C66.1233 76.2692 62.7733 69.7863 57.4639 69.0357L57.4955 69.1039Z" fill="#691D0F" stroke="#231F20" stroke-miterlimit="10"/>
<path d="M61.0996 65.9302L68.6213 73.1295" stroke="#231F20" stroke-miterlimit="10"/>
<path d="M64.4482 62.4844L71.7171 69.5473" stroke="#231F20" stroke-miterlimit="10"/>
<path d="M67.9258 58.8345L75.163 65.9997" stroke="#231F20" stroke-miterlimit="10"/>
<path d="M76.8701 49.6899L83.9809 56.8211" stroke="#231F20" stroke-miterlimit="10"/>
<path d="M81.7031 44.8447L88.6559 51.7029" stroke="#231F20" stroke-miterlimit="10"/>
<path d="M86.793 39.4873L93.7774 46.3796" stroke="#231F20" stroke-miterlimit="10"/>
<path d="M91.9131 34.4038L98.6763 41.0914" stroke="#231F20" stroke-miterlimit="10"/>
<path d="M97.5049 28.6709L104.047 35.1879" stroke="#231F20" stroke-miterlimit="10"/>
<path d="M102.595 23.6562L109.042 29.832" stroke="#231F20" stroke-width="2" stroke-miterlimit="10"/>
<path d="M106.924 17.5827C106.924 17.5827 106.418 14.8531 108.757 15.6378C111.096 16.4226 106.956 19.1863 106.924 17.5827Z" fill="#FCB316" stroke="#FCB316" stroke-width="0.5" stroke-miterlimit="10"/>
<path d="M112.55 11.5426C114.889 12.3615 110.749 15.0911 110.717 13.4875C110.717 13.4875 110.211 10.7579 112.55 11.5426Z" fill="#FCB316" stroke="#FCB316" stroke-width="0.5" stroke-miterlimit="10"/>
<path d="M116.594 6.18667C118.933 7.00556 114.793 9.73517 114.761 8.13152C114.761 8.13152 114.255 5.40191 116.594 6.18667Z" fill="#FCB316" stroke="#FCB316" stroke-width="0.5" stroke-miterlimit="10"/>
<path d="M123.294 15.5348C120.923 14.8183 125 11.9181 125.063 13.5559C125.063 13.5559 125.664 16.2855 123.294 15.5348Z" fill="#FCB316" stroke="#FCB316" stroke-width="0.5" stroke-miterlimit="10"/>
<path d="M119.185 19.9714C116.815 19.2548 120.892 16.3546 120.955 17.9924C120.955 17.9924 121.556 20.722 119.185 19.9714Z" fill="#FCB316" stroke="#FCB316" stroke-width="0.5" stroke-miterlimit="10"/>
<path d="M114.445 25.0212C112.075 24.3046 116.152 21.4044 116.215 23.0422C116.215 23.0422 116.815 25.7718 114.445 25.0212Z" fill="#FCB316" stroke="#FCB316" stroke-width="0.5" stroke-miterlimit="10"/>
<path d="M73.1084 53.5449L80.156 60.7102" stroke="#231F20" stroke-width="1.5" stroke-miterlimit="10"/>
<path d="M70.5801 56.207L77.5645 63.2358" stroke="#231F20" stroke-miterlimit="10"/>
</svg>
