<svg width="735" height="925" viewBox="0 0 735 925" fill="none" xmlns="http://www.w3.org/2000/svg">
<g clip-path="url(#clip0_132_1239)">
<rect width="735" height="925" fill="#DAF0E9"/>
<path d="M708.206 -3.48886L626.081 36.5806L616.789 27.356L698.914 -12.7134L708.206 -3.48886Z" fill="#244B6B" fill-opacity="0.2"/>
<path d="M697.065 4.3724L709.739 -1.79796L718.397 6.79708L694.699 56.647L679.145 41.0936L697.065 4.3724Z" fill="#244B6B" fill-opacity="0.2"/>
<path d="M647.254 28.7324L658.603 23.2262L693.946 58.311L678.928 89.5248L662.421 73.1379L672.228 53.5228L647.254 28.7324Z" fill="#244B6B" fill-opacity="0.2"/>
<path d="M584.206 -3.48886L502.081 36.5806L492.789 27.356L574.914 -12.7134L584.206 -3.48886Z" fill="#244B6B" fill-opacity="0.2"/>
<path d="M573.065 4.3724L585.739 -1.79796L594.397 6.79708L570.699 56.647L555.145 41.0936L573.065 4.3724Z" fill="#244B6B" fill-opacity="0.2"/>
<path d="M523.254 28.7324L534.603 23.2262L569.946 58.311L554.928 89.5248L538.421 73.1379L548.228 53.5228L523.254 28.7324Z" fill="#244B6B" fill-opacity="0.2"/>
<path d="M460.206 -3.48886L378.081 36.5806L368.789 27.356L450.914 -12.7134L460.206 -3.48886Z" fill="#244B6B" fill-opacity="0.2"/>
<path d="M449.065 4.3724L461.739 -1.79796L470.397 6.79708L446.699 56.647L431.145 41.0936L449.065 4.3724Z" fill="#244B6B" fill-opacity="0.2"/>
<path d="M399.254 28.7324L410.603 23.2262L445.946 58.311L430.928 89.5248L414.421 73.1379L424.228 53.5228L399.254 28.7324Z" fill="#244B6B" fill-opacity="0.2"/>
<path d="M336.206 -3.48886L254.081 36.5806L244.789 27.356L326.914 -12.7134L336.206 -3.48886Z" fill="#244B6B" fill-opacity="0.2"/>
<path d="M325.065 4.3724L337.739 -1.79796L346.397 6.79708L322.699 56.647L307.145 41.0936L325.065 4.3724Z" fill="#244B6B" fill-opacity="0.2"/>
<path d="M275.254 28.7324L286.603 23.2262L321.946 58.311L306.928 89.5248L290.421 73.1379L300.228 53.5228L275.254 28.7324Z" fill="#244B6B" fill-opacity="0.2"/>
<path d="M212.206 -3.48886L130.081 36.5806L120.789 27.356L202.914 -12.7134L212.206 -3.48886Z" fill="#244B6B" fill-opacity="0.2"/>
<path d="M201.065 4.3724L213.739 -1.79796L222.397 6.79708L198.699 56.647L183.145 41.0936L201.065 4.3724Z" fill="#244B6B" fill-opacity="0.2"/>
<path d="M151.254 28.7324L162.603 23.2262L197.946 58.311L182.928 89.5248L166.421 73.1379L176.228 53.5228L151.254 28.7324Z" fill="#244B6B" fill-opacity="0.2"/>
<path d="M88.2063 -3.48886L6.08137 36.5806L-3.21121 27.356L78.9137 -12.7134L88.2063 -3.48886Z" fill="#244B6B" fill-opacity="0.2"/>
<path d="M77.0651 4.3724L89.7389 -1.79796L98.3973 6.79708L74.6989 56.647L59.1455 41.0936L77.0651 4.3724Z" fill="#244B6B" fill-opacity="0.2"/>
<path d="M27.2542 28.7324L38.6026 23.2262L73.9461 58.311L58.9285 89.5248L42.4207 73.1379L52.2275 53.5228L27.2542 28.7324Z" fill="#244B6B" fill-opacity="0.2"/>
<path d="M708.206 120.511L626.081 160.581L616.789 151.356L698.914 111.287L708.206 120.511Z" fill="#244B6B" fill-opacity="0.2"/>
<path d="M697.065 128.372L709.739 122.202L718.397 130.797L694.699 180.647L679.145 165.094L697.065 128.372Z" fill="#244B6B" fill-opacity="0.2"/>
<path d="M647.254 152.732L658.603 147.226L693.946 182.311L678.928 213.525L662.421 197.138L672.228 177.523L647.254 152.732Z" fill="#244B6B" fill-opacity="0.2"/>
<path d="M584.206 120.511L502.081 160.581L492.789 151.356L574.914 111.287L584.206 120.511Z" fill="#244B6B" fill-opacity="0.2"/>
<path d="M573.065 128.372L585.739 122.202L594.397 130.797L570.699 180.647L555.145 165.094L573.065 128.372Z" fill="#244B6B" fill-opacity="0.2"/>
<path d="M523.254 152.732L534.603 147.226L569.946 182.311L554.928 213.525L538.421 197.138L548.228 177.523L523.254 152.732Z" fill="#244B6B" fill-opacity="0.2"/>
<path d="M460.206 120.511L378.081 160.581L368.789 151.356L450.914 111.287L460.206 120.511Z" fill="#244B6B" fill-opacity="0.2"/>
<path d="M449.065 128.372L461.739 122.202L470.397 130.797L446.699 180.647L431.145 165.094L449.065 128.372Z" fill="#244B6B" fill-opacity="0.2"/>
<path d="M399.254 152.732L410.603 147.226L445.946 182.311L430.928 213.525L414.421 197.138L424.228 177.523L399.254 152.732Z" fill="#244B6B" fill-opacity="0.2"/>
<path d="M336.206 120.511L254.081 160.581L244.789 151.356L326.914 111.287L336.206 120.511Z" fill="#244B6B" fill-opacity="0.2"/>
<path d="M325.065 128.372L337.739 122.202L346.397 130.797L322.699 180.647L307.145 165.094L325.065 128.372Z" fill="#244B6B" fill-opacity="0.2"/>
<path d="M275.254 152.732L286.603 147.226L321.946 182.311L306.928 213.525L290.421 197.138L300.228 177.523L275.254 152.732Z" fill="#244B6B" fill-opacity="0.2"/>
<path d="M212.206 120.511L130.081 160.581L120.789 151.356L202.914 111.287L212.206 120.511Z" fill="#244B6B" fill-opacity="0.2"/>
<path d="M201.065 128.372L213.739 122.202L222.397 130.797L198.699 180.647L183.145 165.094L201.065 128.372Z" fill="#244B6B" fill-opacity="0.2"/>
<path d="M151.254 152.732L162.603 147.226L197.946 182.311L182.928 213.525L166.421 197.138L176.228 177.523L151.254 152.732Z" fill="#244B6B" fill-opacity="0.2"/>
<path d="M88.2063 120.511L6.08137 160.581L-3.21121 151.356L78.9137 111.287L88.2063 120.511Z" fill="#244B6B" fill-opacity="0.2"/>
<path d="M77.0651 128.372L89.7389 122.202L98.3973 130.797L74.6989 180.647L59.1455 165.094L77.0651 128.372Z" fill="#244B6B" fill-opacity="0.2"/>
<path d="M27.2542 152.732L38.6026 147.226L73.9461 182.311L58.9285 213.525L42.4207 197.138L52.2275 177.523L27.2542 152.732Z" fill="#244B6B" fill-opacity="0.2"/>
<path d="M708.206 244.511L626.081 284.581L616.789 275.356L698.914 235.287L708.206 244.511Z" fill="#244B6B" fill-opacity="0.2"/>
<path d="M697.065 252.372L709.739 246.202L718.397 254.797L694.699 304.647L679.145 289.094L697.065 252.372Z" fill="#244B6B" fill-opacity="0.2"/>
<path d="M647.254 276.732L658.603 271.226L693.946 306.311L678.928 337.525L662.421 321.138L672.228 301.523L647.254 276.732Z" fill="#244B6B" fill-opacity="0.2"/>
<path d="M584.206 244.511L502.081 284.581L492.789 275.356L574.914 235.287L584.206 244.511Z" fill="#244B6B" fill-opacity="0.2"/>
<path d="M573.065 252.372L585.739 246.202L594.397 254.797L570.699 304.647L555.145 289.094L573.065 252.372Z" fill="#244B6B" fill-opacity="0.2"/>
<path d="M523.254 276.732L534.603 271.226L569.946 306.311L554.928 337.525L538.421 321.138L548.228 301.523L523.254 276.732Z" fill="#244B6B" fill-opacity="0.2"/>
<path d="M460.206 244.511L378.081 284.581L368.789 275.356L450.914 235.287L460.206 244.511Z" fill="#244B6B" fill-opacity="0.2"/>
<path d="M449.065 252.372L461.739 246.202L470.397 254.797L446.699 304.647L431.145 289.094L449.065 252.372Z" fill="#244B6B" fill-opacity="0.2"/>
<path d="M399.254 276.732L410.603 271.226L445.946 306.311L430.928 337.525L414.421 321.138L424.228 301.523L399.254 276.732Z" fill="#244B6B" fill-opacity="0.2"/>
<path d="M336.206 244.511L254.081 284.581L244.789 275.356L326.914 235.287L336.206 244.511Z" fill="#244B6B" fill-opacity="0.2"/>
<path d="M325.065 252.372L337.739 246.202L346.397 254.797L322.699 304.647L307.145 289.094L325.065 252.372Z" fill="#244B6B" fill-opacity="0.2"/>
<path d="M275.254 276.732L286.603 271.226L321.946 306.311L306.928 337.525L290.421 321.138L300.228 301.523L275.254 276.732Z" fill="#244B6B" fill-opacity="0.2"/>
<path d="M212.206 244.511L130.081 284.581L120.789 275.356L202.914 235.287L212.206 244.511Z" fill="#244B6B" fill-opacity="0.2"/>
<path d="M201.065 252.372L213.739 246.202L222.397 254.797L198.699 304.647L183.145 289.094L201.065 252.372Z" fill="#244B6B" fill-opacity="0.2"/>
<path d="M151.254 276.732L162.603 271.226L197.946 306.311L182.928 337.525L166.421 321.138L176.228 301.523L151.254 276.732Z" fill="#244B6B" fill-opacity="0.2"/>
<path d="M88.2063 244.511L6.08137 284.581L-3.21121 275.356L78.9137 235.287L88.2063 244.511Z" fill="#244B6B" fill-opacity="0.2"/>
<path d="M77.0651 252.372L89.7389 246.202L98.3973 254.797L74.6989 304.647L59.1455 289.094L77.0651 252.372Z" fill="#244B6B" fill-opacity="0.2"/>
<path d="M27.2542 276.732L38.6026 271.226L73.9461 306.311L58.9285 337.525L42.4207 321.138L52.2275 301.523L27.2542 276.732Z" fill="#244B6B" fill-opacity="0.2"/>
<path d="M708.206 368.511L626.081 408.581L616.789 399.356L698.914 359.287L708.206 368.511Z" fill="#244B6B" fill-opacity="0.2"/>
<path d="M697.065 376.372L709.739 370.202L718.397 378.797L694.699 428.647L679.145 413.094L697.065 376.372Z" fill="#244B6B" fill-opacity="0.2"/>
<path d="M647.254 400.732L658.603 395.226L693.946 430.311L678.928 461.525L662.421 445.138L672.228 425.523L647.254 400.732Z" fill="#244B6B" fill-opacity="0.2"/>
<path d="M584.206 368.511L502.081 408.581L492.789 399.356L574.914 359.287L584.206 368.511Z" fill="#244B6B" fill-opacity="0.2"/>
<path d="M573.065 376.372L585.739 370.202L594.397 378.797L570.699 428.647L555.145 413.094L573.065 376.372Z" fill="#244B6B" fill-opacity="0.2"/>
<path d="M523.254 400.732L534.603 395.226L569.946 430.311L554.928 461.525L538.421 445.138L548.228 425.523L523.254 400.732Z" fill="#244B6B" fill-opacity="0.2"/>
<path d="M460.206 368.511L378.081 408.581L368.789 399.356L450.914 359.287L460.206 368.511Z" fill="#244B6B" fill-opacity="0.2"/>
<path d="M449.065 376.372L461.739 370.202L470.397 378.797L446.699 428.647L431.145 413.094L449.065 376.372Z" fill="#244B6B" fill-opacity="0.2"/>
<path d="M399.254 400.732L410.603 395.226L445.946 430.311L430.928 461.525L414.421 445.138L424.228 425.523L399.254 400.732Z" fill="#244B6B" fill-opacity="0.2"/>
<path d="M336.206 368.511L254.081 408.581L244.789 399.356L326.914 359.287L336.206 368.511Z" fill="#244B6B" fill-opacity="0.2"/>
<path d="M325.065 376.372L337.739 370.202L346.397 378.797L322.699 428.647L307.145 413.094L325.065 376.372Z" fill="#244B6B" fill-opacity="0.2"/>
<path d="M275.254 400.732L286.603 395.226L321.946 430.311L306.928 461.525L290.421 445.138L300.228 425.523L275.254 400.732Z" fill="#244B6B" fill-opacity="0.2"/>
<path d="M212.206 368.511L130.081 408.581L120.789 399.356L202.914 359.287L212.206 368.511Z" fill="#244B6B" fill-opacity="0.2"/>
<path d="M201.065 376.372L213.739 370.202L222.397 378.797L198.699 428.647L183.145 413.094L201.065 376.372Z" fill="#244B6B" fill-opacity="0.2"/>
<path d="M151.254 400.732L162.603 395.226L197.946 430.311L182.928 461.525L166.421 445.138L176.228 425.523L151.254 400.732Z" fill="#244B6B" fill-opacity="0.2"/>
<path d="M88.2063 368.511L6.08137 408.581L-3.21121 399.356L78.9137 359.287L88.2063 368.511Z" fill="#244B6B" fill-opacity="0.2"/>
<path d="M77.0651 376.372L89.7389 370.202L98.3973 378.797L74.6989 428.647L59.1455 413.094L77.0651 376.372Z" fill="#244B6B" fill-opacity="0.2"/>
<path d="M27.2542 400.732L38.6026 395.226L73.9461 430.311L58.9285 461.525L42.4207 445.138L52.2275 425.523L27.2542 400.732Z" fill="#244B6B" fill-opacity="0.2"/>
<path d="M708.206 492.511L626.081 532.581L616.789 523.356L698.914 483.287L708.206 492.511Z" fill="#244B6B" fill-opacity="0.2"/>
<path d="M697.065 500.372L709.739 494.202L718.397 502.797L694.699 552.647L679.145 537.094L697.065 500.372Z" fill="#244B6B" fill-opacity="0.2"/>
<path d="M647.254 524.732L658.603 519.226L693.946 554.311L678.928 585.525L662.421 569.138L672.228 549.523L647.254 524.732Z" fill="#244B6B" fill-opacity="0.2"/>
<path d="M584.206 492.511L502.081 532.581L492.789 523.356L574.914 483.287L584.206 492.511Z" fill="#244B6B" fill-opacity="0.2"/>
<path d="M573.065 500.372L585.739 494.202L594.397 502.797L570.699 552.647L555.145 537.094L573.065 500.372Z" fill="#244B6B" fill-opacity="0.2"/>
<path d="M523.254 524.732L534.603 519.226L569.946 554.311L554.928 585.525L538.421 569.138L548.228 549.523L523.254 524.732Z" fill="#244B6B" fill-opacity="0.2"/>
<path d="M460.206 492.511L378.081 532.581L368.789 523.356L450.914 483.287L460.206 492.511Z" fill="#244B6B" fill-opacity="0.2"/>
<path d="M449.065 500.372L461.739 494.202L470.397 502.797L446.699 552.647L431.145 537.094L449.065 500.372Z" fill="#244B6B" fill-opacity="0.2"/>
<path d="M399.254 524.732L410.603 519.226L445.946 554.311L430.928 585.525L414.421 569.138L424.228 549.523L399.254 524.732Z" fill="#244B6B" fill-opacity="0.2"/>
<path d="M336.206 492.511L254.081 532.581L244.789 523.356L326.914 483.287L336.206 492.511Z" fill="#244B6B" fill-opacity="0.2"/>
<path d="M325.065 500.372L337.739 494.202L346.397 502.797L322.699 552.647L307.145 537.094L325.065 500.372Z" fill="#244B6B" fill-opacity="0.2"/>
<path d="M275.254 524.732L286.603 519.226L321.946 554.311L306.928 585.525L290.421 569.138L300.228 549.523L275.254 524.732Z" fill="#244B6B" fill-opacity="0.2"/>
<path d="M212.206 492.511L130.081 532.581L120.789 523.356L202.914 483.287L212.206 492.511Z" fill="#244B6B" fill-opacity="0.2"/>
<path d="M201.065 500.372L213.739 494.202L222.397 502.797L198.699 552.647L183.145 537.094L201.065 500.372Z" fill="#244B6B" fill-opacity="0.2"/>
<path d="M151.254 524.732L162.603 519.226L197.946 554.311L182.928 585.525L166.421 569.138L176.228 549.523L151.254 524.732Z" fill="#244B6B" fill-opacity="0.2"/>
<path d="M88.2063 492.511L6.08137 532.581L-3.21121 523.356L78.9137 483.287L88.2063 492.511Z" fill="#244B6B" fill-opacity="0.2"/>
<path d="M77.0651 500.372L89.7389 494.202L98.3973 502.797L74.6989 552.647L59.1455 537.094L77.0651 500.372Z" fill="#244B6B" fill-opacity="0.2"/>
<path d="M27.2542 524.732L38.6026 519.226L73.9461 554.311L58.9285 585.525L42.4207 569.138L52.2275 549.523L27.2542 524.732Z" fill="#244B6B" fill-opacity="0.2"/>
<path d="M708.206 616.511L626.081 656.581L616.789 647.356L698.914 607.287L708.206 616.511Z" fill="#244B6B" fill-opacity="0.2"/>
<path d="M697.065 624.372L709.739 618.202L718.397 626.797L694.699 676.647L679.145 661.094L697.065 624.372Z" fill="#244B6B" fill-opacity="0.2"/>
<path d="M647.254 648.732L658.603 643.226L693.946 678.311L678.928 709.525L662.421 693.138L672.228 673.523L647.254 648.732Z" fill="#244B6B" fill-opacity="0.2"/>
<path d="M584.206 616.511L502.081 656.581L492.789 647.356L574.914 607.287L584.206 616.511Z" fill="#244B6B" fill-opacity="0.2"/>
<path d="M573.065 624.372L585.739 618.202L594.397 626.797L570.699 676.647L555.145 661.094L573.065 624.372Z" fill="#244B6B" fill-opacity="0.2"/>
<path d="M523.254 648.732L534.603 643.226L569.946 678.311L554.928 709.525L538.421 693.138L548.228 673.523L523.254 648.732Z" fill="#244B6B" fill-opacity="0.2"/>
<path d="M460.206 616.511L378.081 656.581L368.789 647.356L450.914 607.287L460.206 616.511Z" fill="#244B6B" fill-opacity="0.2"/>
<path d="M449.065 624.372L461.739 618.202L470.397 626.797L446.699 676.647L431.145 661.094L449.065 624.372Z" fill="#244B6B" fill-opacity="0.2"/>
<path d="M399.254 648.732L410.603 643.226L445.946 678.311L430.928 709.525L414.421 693.138L424.228 673.523L399.254 648.732Z" fill="#244B6B" fill-opacity="0.2"/>
<path d="M336.206 616.511L254.081 656.581L244.789 647.356L326.914 607.287L336.206 616.511Z" fill="#244B6B" fill-opacity="0.2"/>
<path d="M325.065 624.372L337.739 618.202L346.397 626.797L322.699 676.647L307.145 661.094L325.065 624.372Z" fill="#244B6B" fill-opacity="0.2"/>
<path d="M275.254 648.732L286.603 643.226L321.946 678.311L306.928 709.525L290.421 693.138L300.228 673.523L275.254 648.732Z" fill="#244B6B" fill-opacity="0.2"/>
<path d="M212.206 616.511L130.081 656.581L120.789 647.356L202.914 607.287L212.206 616.511Z" fill="#244B6B" fill-opacity="0.2"/>
<path d="M201.065 624.372L213.739 618.202L222.397 626.797L198.699 676.647L183.145 661.094L201.065 624.372Z" fill="#244B6B" fill-opacity="0.2"/>
<path d="M151.254 648.732L162.603 643.226L197.946 678.311L182.928 709.525L166.421 693.138L176.228 673.523L151.254 648.732Z" fill="#244B6B" fill-opacity="0.2"/>
<path d="M88.2063 616.511L6.08137 656.581L-3.21121 647.356L78.9137 607.287L88.2063 616.511Z" fill="#244B6B" fill-opacity="0.2"/>
<path d="M77.0651 624.372L89.7389 618.202L98.3973 626.797L74.6989 676.647L59.1455 661.094L77.0651 624.372Z" fill="#244B6B" fill-opacity="0.2"/>
<path d="M27.2542 648.732L38.6026 643.226L73.9461 678.311L58.9285 709.525L42.4207 693.138L52.2275 673.523L27.2542 648.732Z" fill="#244B6B" fill-opacity="0.2"/>
<path d="M708.206 740.511L626.081 780.581L616.789 771.356L698.914 731.287L708.206 740.511Z" fill="#244B6B" fill-opacity="0.2"/>
<path d="M697.065 748.372L709.739 742.202L718.397 750.797L694.699 800.647L679.145 785.094L697.065 748.372Z" fill="#244B6B" fill-opacity="0.2"/>
<path d="M647.254 772.732L658.603 767.226L693.946 802.311L678.928 833.525L662.421 817.138L672.228 797.523L647.254 772.732Z" fill="#244B6B" fill-opacity="0.2"/>
<path d="M584.206 740.511L502.081 780.581L492.789 771.356L574.914 731.287L584.206 740.511Z" fill="#244B6B" fill-opacity="0.2"/>
<path d="M573.065 748.372L585.739 742.202L594.397 750.797L570.699 800.647L555.145 785.094L573.065 748.372Z" fill="#244B6B" fill-opacity="0.2"/>
<path d="M523.254 772.732L534.603 767.226L569.946 802.311L554.928 833.525L538.421 817.138L548.228 797.523L523.254 772.732Z" fill="#244B6B" fill-opacity="0.2"/>
<path d="M460.206 740.511L378.081 780.581L368.789 771.356L450.914 731.287L460.206 740.511Z" fill="#244B6B" fill-opacity="0.2"/>
<path d="M449.065 748.372L461.739 742.202L470.397 750.797L446.699 800.647L431.145 785.094L449.065 748.372Z" fill="#244B6B" fill-opacity="0.2"/>
<path d="M399.254 772.732L410.603 767.226L445.946 802.311L430.928 833.525L414.421 817.138L424.228 797.523L399.254 772.732Z" fill="#244B6B" fill-opacity="0.2"/>
<path d="M336.206 740.511L254.081 780.581L244.789 771.356L326.914 731.287L336.206 740.511Z" fill="#244B6B" fill-opacity="0.2"/>
<path d="M325.065 748.372L337.739 742.202L346.397 750.797L322.699 800.647L307.145 785.094L325.065 748.372Z" fill="#244B6B" fill-opacity="0.2"/>
<path d="M275.254 772.732L286.603 767.226L321.946 802.311L306.928 833.525L290.421 817.138L300.228 797.523L275.254 772.732Z" fill="#244B6B" fill-opacity="0.2"/>
<path d="M212.206 740.511L130.081 780.581L120.789 771.356L202.914 731.287L212.206 740.511Z" fill="#244B6B" fill-opacity="0.2"/>
<path d="M201.065 748.372L213.739 742.202L222.397 750.797L198.699 800.647L183.145 785.094L201.065 748.372Z" fill="#244B6B" fill-opacity="0.2"/>
<path d="M151.254 772.732L162.603 767.226L197.946 802.311L182.928 833.525L166.421 817.138L176.228 797.523L151.254 772.732Z" fill="#244B6B" fill-opacity="0.2"/>
<path d="M88.2063 740.511L6.08137 780.581L-3.21121 771.356L78.9137 731.287L88.2063 740.511Z" fill="#244B6B" fill-opacity="0.2"/>
<path d="M77.0651 748.372L89.7389 742.202L98.3973 750.797L74.6989 800.647L59.1455 785.094L77.0651 748.372Z" fill="#244B6B" fill-opacity="0.2"/>
<path d="M27.2542 772.732L38.6026 767.226L73.9461 802.311L58.9285 833.525L42.4207 817.138L52.2275 797.523L27.2542 772.732Z" fill="#244B6B" fill-opacity="0.2"/>
<path d="M708.206 864.511L626.081 904.581L616.789 895.356L698.914 855.287L708.206 864.511Z" fill="#244B6B" fill-opacity="0.2"/>
<path d="M697.065 872.372L709.739 866.202L718.397 874.797L694.699 924.647L679.145 909.094L697.065 872.372Z" fill="#244B6B" fill-opacity="0.2"/>
<path d="M647.254 896.732L658.603 891.226L693.946 926.311L678.928 957.525L662.421 941.138L672.228 921.523L647.254 896.732Z" fill="#244B6B" fill-opacity="0.2"/>
<path d="M584.206 864.511L502.081 904.581L492.789 895.356L574.914 855.287L584.206 864.511Z" fill="#244B6B" fill-opacity="0.2"/>
<path d="M573.065 872.372L585.739 866.202L594.397 874.797L570.699 924.647L555.145 909.094L573.065 872.372Z" fill="#244B6B" fill-opacity="0.2"/>
<path d="M523.254 896.732L534.603 891.226L569.946 926.311L554.928 957.525L538.421 941.138L548.228 921.523L523.254 896.732Z" fill="#244B6B" fill-opacity="0.2"/>
<path d="M460.206 864.511L378.081 904.581L368.789 895.356L450.914 855.287L460.206 864.511Z" fill="#244B6B" fill-opacity="0.2"/>
<path d="M449.065 872.372L461.739 866.202L470.397 874.797L446.699 924.647L431.145 909.094L449.065 872.372Z" fill="#244B6B" fill-opacity="0.2"/>
<path d="M399.254 896.732L410.603 891.226L445.946 926.311L430.928 957.525L414.421 941.138L424.228 921.523L399.254 896.732Z" fill="#244B6B" fill-opacity="0.2"/>
<path d="M336.206 864.511L254.081 904.581L244.789 895.356L326.914 855.287L336.206 864.511Z" fill="#244B6B" fill-opacity="0.2"/>
<path d="M325.065 872.372L337.739 866.202L346.397 874.797L322.699 924.647L307.145 909.094L325.065 872.372Z" fill="#244B6B" fill-opacity="0.2"/>
<path d="M275.254 896.732L286.603 891.226L321.946 926.311L306.928 957.525L290.421 941.138L300.228 921.523L275.254 896.732Z" fill="#244B6B" fill-opacity="0.2"/>
<path d="M212.206 864.511L130.081 904.581L120.789 895.356L202.914 855.287L212.206 864.511Z" fill="#244B6B" fill-opacity="0.2"/>
<path d="M201.065 872.372L213.739 866.202L222.397 874.797L198.699 924.647L183.145 909.094L201.065 872.372Z" fill="#244B6B" fill-opacity="0.2"/>
<path d="M151.254 896.732L162.603 891.226L197.946 926.311L182.928 957.525L166.421 941.138L176.228 921.523L151.254 896.732Z" fill="#244B6B" fill-opacity="0.2"/>
<path d="M88.2063 864.511L6.08137 904.581L-3.21121 895.356L78.9137 855.287L88.2063 864.511Z" fill="#244B6B" fill-opacity="0.2"/>
<path d="M77.0651 872.372L89.7389 866.202L98.3973 874.797L74.6989 924.647L59.1455 909.094L77.0651 872.372Z" fill="#244B6B" fill-opacity="0.2"/>
<path d="M27.2542 896.732L38.6026 891.226L73.9461 926.311L58.9285 957.525L42.4207 941.138L52.2275 921.523L27.2542 896.732Z" fill="#244B6B" fill-opacity="0.2"/>
</g>
<defs>
<clipPath id="clip0_132_1239">
<rect width="735" height="925" fill="white"/>
</clipPath>
</defs>
</svg>
