<svg width="189" height="61" viewBox="0 0 189 61" fill="none" xmlns="http://www.w3.org/2000/svg">
<rect width="131" height="61" fill="#FA5C20"/>
<path d="M33.952 30.264C33.952 31.992 33.616 33.536 32.944 34.896C32.288 36.256 31.32 37.328 30.04 38.112C28.776 38.88 27.232 39.264 25.408 39.264C23.584 39.264 22.032 38.88 20.752 38.112C19.488 37.328 18.52 36.256 17.848 34.896C17.192 33.536 16.864 31.992 16.864 30.264C16.864 28.52 17.192 26.976 17.848 25.632C18.52 24.288 19.488 23.232 20.752 22.464C22.032 21.696 23.584 21.312 25.408 21.312C27.232 21.312 28.776 21.696 30.04 22.464C31.32 23.232 32.288 24.288 32.944 25.632C33.616 26.976 33.952 28.52 33.952 30.264ZM21.352 30.264C21.352 31.048 21.416 31.824 21.544 32.592C21.672 33.36 21.888 34.064 22.192 34.704C22.496 35.328 22.904 35.832 23.416 36.216C23.944 36.6 24.608 36.792 25.408 36.792C26.208 36.792 26.864 36.6 27.376 36.216C27.904 35.832 28.32 35.328 28.624 34.704C28.928 34.064 29.144 33.36 29.272 32.592C29.4 31.824 29.464 31.048 29.464 30.264C29.464 29.48 29.4 28.704 29.272 27.936C29.144 27.168 28.928 26.472 28.624 25.848C28.32 25.208 27.904 24.704 27.376 24.336C26.864 23.952 26.208 23.76 25.408 23.76C24.608 23.76 23.944 23.952 23.416 24.336C22.904 24.704 22.496 25.208 22.192 25.848C21.888 26.472 21.672 27.168 21.544 27.936C21.416 28.704 21.352 29.48 21.352 30.264ZM44.3963 39.24C43.4043 39.24 42.5563 39.056 41.8523 38.688C41.1643 38.304 40.6603 37.848 40.3403 37.32V44.136H36.4523V26.256H39.9563L40.3403 28.128C40.5483 27.76 40.8203 27.416 41.1563 27.096C41.5083 26.776 41.9483 26.52 42.4763 26.328C43.0203 26.12 43.6763 26.016 44.4443 26.016C45.6923 26.016 46.7563 26.312 47.6363 26.904C48.5323 27.496 49.2203 28.296 49.7003 29.304C50.1803 30.296 50.4203 31.416 50.4203 32.664C50.4203 33.912 50.1803 35.032 49.7003 36.024C49.2203 37.016 48.5243 37.8 47.6123 38.376C46.7163 38.952 45.6443 39.24 44.3963 39.24ZM43.3643 28.248C42.6443 28.248 42.0603 28.456 41.6123 28.872C41.1643 29.288 40.8363 29.824 40.6283 30.48C40.4363 31.12 40.3403 31.808 40.3403 32.544C40.3403 33.296 40.4363 34 40.6283 34.656C40.8203 35.312 41.1403 35.84 41.5883 36.24C42.0363 36.64 42.6363 36.84 43.3883 36.84C44.1243 36.84 44.7083 36.64 45.1403 36.24C45.5883 35.824 45.9083 35.288 46.1003 34.632C46.3083 33.976 46.4123 33.288 46.4123 32.568C46.4123 31.832 46.3083 31.136 46.1003 30.48C45.8923 29.824 45.5643 29.288 45.1163 28.872C44.6843 28.456 44.1003 28.248 43.3643 28.248ZM64.5687 22.32C64.5687 22.944 64.3447 23.472 63.8967 23.904C63.4487 24.336 62.9127 24.552 62.2887 24.552C61.6807 24.552 61.1527 24.336 60.7047 23.904C60.2727 23.472 60.0567 22.944 60.0567 22.32C60.0567 21.712 60.2727 21.192 60.7047 20.76C61.1527 20.328 61.6807 20.112 62.2887 20.112C62.9127 20.112 63.4487 20.328 63.8967 20.76C64.3447 21.192 64.5687 21.712 64.5687 22.32ZM60.3687 39V26.256H64.2567V39H60.3687ZM74.0014 44.376C72.7054 44.376 71.5774 44.2 70.6174 43.848C69.6734 43.512 68.9374 43.008 68.4094 42.336C67.8814 41.68 67.6174 40.872 67.6174 39.912V39.72H71.5054C71.4894 40.584 71.7054 41.256 72.1534 41.736C72.6014 42.216 73.2574 42.456 74.1214 42.456C74.9374 42.456 75.5614 42.296 75.9934 41.976C76.4414 41.656 76.7454 41.2 76.9054 40.608C77.0814 40.016 77.1694 39.312 77.1694 38.496V36.648C76.8174 37.256 76.2974 37.736 75.6094 38.088C74.9374 38.44 74.0814 38.616 73.0414 38.616C71.8094 38.616 70.7454 38.344 69.8494 37.8C68.9534 37.24 68.2654 36.488 67.7854 35.544C67.3214 34.584 67.0894 33.512 67.0894 32.328C67.0894 31.16 67.3214 30.104 67.7854 29.16C68.2654 28.2 68.9374 27.44 69.8014 26.88C70.6814 26.304 71.7214 26.016 72.9214 26.016C73.8494 26.016 74.6894 26.192 75.4414 26.544C76.1934 26.88 76.7694 27.376 77.1694 28.032L77.5534 26.256H81.0574V38.136C81.0574 39.56 80.7614 40.728 80.1694 41.64C79.5934 42.568 78.7774 43.256 77.7214 43.704C76.6654 44.152 75.4254 44.376 74.0014 44.376ZM74.1454 36.312C74.8814 36.312 75.4654 36.12 75.8974 35.736C76.3454 35.352 76.6654 34.856 76.8574 34.248C77.0654 33.624 77.1694 32.968 77.1694 32.28C77.1694 31.592 77.0654 30.944 76.8574 30.336C76.6654 29.712 76.3454 29.208 75.8974 28.824C75.4494 28.44 74.8574 28.248 74.1214 28.248C73.4014 28.248 72.8174 28.44 72.3694 28.824C71.9214 29.208 71.5934 29.712 71.3854 30.336C71.1934 30.944 71.0974 31.592 71.0974 32.28C71.0974 32.952 71.2014 33.6 71.4094 34.224C71.6174 34.832 71.9454 35.336 72.3934 35.736C72.8414 36.12 73.4254 36.312 74.1454 36.312ZM96.574 34.92C96.574 35.96 96.286 36.8 95.71 37.44C95.15 38.064 94.406 38.52 93.478 38.808C92.566 39.096 91.59 39.24 90.55 39.24C89.158 39.24 87.934 38.984 86.878 38.472C85.838 37.944 85.022 37.184 84.43 36.192C83.854 35.2 83.566 34.016 83.566 32.64C83.566 31.28 83.838 30.104 84.382 29.112C84.942 28.12 85.726 27.36 86.734 26.832C87.742 26.288 88.926 26.016 90.286 26.016C92.27 26.016 93.838 26.568 94.99 27.672C96.158 28.76 96.742 30.296 96.742 32.28C96.742 32.456 96.734 32.64 96.718 32.832C96.718 33.024 96.71 33.216 96.694 33.408H87.598C87.662 34.064 87.798 34.696 88.006 35.304C88.23 35.912 88.55 36.408 88.966 36.792C89.382 37.16 89.91 37.344 90.55 37.344C91.062 37.344 91.47 37.248 91.774 37.056C92.094 36.864 92.326 36.584 92.47 36.216C92.614 35.848 92.686 35.416 92.686 34.92H96.574ZM90.286 27.912C89.678 27.912 89.182 28.088 88.798 28.44C88.43 28.776 88.158 29.224 87.982 29.784C87.806 30.328 87.686 30.912 87.622 31.536H92.95C92.95 30.864 92.862 30.256 92.686 29.712C92.526 29.168 92.254 28.736 91.87 28.416C91.486 28.08 90.958 27.912 90.286 27.912ZM103.083 32.016V39H99.1945V26.256H102.699L103.083 28.224C103.483 27.568 104.027 27.04 104.715 26.64C105.403 26.224 106.211 26.016 107.139 26.016C108.307 26.016 109.299 26.24 110.115 26.688C110.947 27.12 111.579 27.744 112.011 28.56C112.443 29.376 112.659 30.368 112.659 31.536V39H108.771V31.872C108.771 30.912 108.539 30.128 108.075 29.52C107.611 28.912 106.891 28.608 105.915 28.608C105.307 28.608 104.787 28.768 104.355 29.088C103.939 29.392 103.619 29.8 103.395 30.312C103.187 30.824 103.083 31.392 103.083 32.016Z" fill="white"/>
<rect x="131" width="58" height="61" fill="#FAFFFA"/>
<path d="M160 10L148.453 30H171.547L160 10ZM160 51.0122H162V28H160H158V51.0122H160Z" fill="#FA5C20"/>
</svg>
