<svg width="224" height="58" viewBox="0 0 224 58" fill="none" xmlns="http://www.w3.org/2000/svg">
<rect x="166" width="58" height="58" fill="#FAFFFA"/>
<mask id="path-2-inside-1_213_1520" fill="white">
<path d="M173 18H206V51H173V18Z"/>
</mask>
<path d="M173 18H206V51H173V18Z" fill="#FAFFFA"/>
<path d="M173 51H169V55H173V51ZM206 51V47H173V51V55H206V51ZM173 51H177V18H173H169V51H173Z" fill="#FA5C20" mask="url(#path-2-inside-1_213_1520)"/>
<path d="M216.504 7.00006L194.197 12.9772L210.527 29.3072L216.504 7.00006ZM184 39.5039L185.414 40.9181L205.19 21.1422L203.776 19.728L202.362 18.3138L182.586 38.0897L184 39.5039Z" fill="#FA5C20"/>
<rect width="166" height="58" fill="#FA5C20"/>
<path d="M29.864 32.056C29.864 33.192 29.6 34.128 29.072 34.864C28.544 35.584 27.848 36.12 26.984 36.472C26.12 36.824 25.192 37 24.2 37H16.16V19.552H23.624C24.728 19.552 25.704 19.712 26.552 20.032C27.4 20.336 28.064 20.8 28.544 21.424C29.04 22.032 29.288 22.808 29.288 23.752C29.288 24.696 29.024 25.528 28.496 26.248C27.968 26.952 27.208 27.496 26.216 27.88C26.952 28.04 27.592 28.304 28.136 28.672C28.68 29.04 29.104 29.512 29.408 30.088C29.712 30.648 29.864 31.304 29.864 32.056ZM20.336 21.928V26.872H22.736C23.52 26.872 24.128 26.656 24.56 26.224C24.992 25.776 25.208 25.16 25.208 24.376C25.208 23.64 25.008 23.048 24.608 22.6C24.208 22.152 23.616 21.928 22.832 21.928H20.336ZM20.336 34.624H22.88C23.488 34.624 24.008 34.528 24.44 34.336C24.872 34.128 25.2 33.824 25.424 33.424C25.664 33.008 25.784 32.504 25.784 31.912C25.784 31.336 25.664 30.848 25.424 30.448C25.184 30.048 24.84 29.744 24.392 29.536C23.96 29.328 23.44 29.224 22.832 29.224H20.336V34.624ZM44.6756 32.92C44.6756 33.96 44.3876 34.8 43.8116 35.44C43.2516 36.064 42.5076 36.52 41.5796 36.808C40.6676 37.096 39.6916 37.24 38.6516 37.24C37.2596 37.24 36.0356 36.984 34.9796 36.472C33.9396 35.944 33.1236 35.184 32.5316 34.192C31.9556 33.2 31.6676 32.016 31.6676 30.64C31.6676 29.28 31.9396 28.104 32.4836 27.112C33.0436 26.12 33.8276 25.36 34.8356 24.832C35.8436 24.288 37.0276 24.016 38.3876 24.016C40.3716 24.016 41.9396 24.568 43.0916 25.672C44.2596 26.76 44.8436 28.296 44.8436 30.28C44.8436 30.456 44.8356 30.64 44.8196 30.832C44.8196 31.024 44.8116 31.216 44.7956 31.408H35.6996C35.7636 32.064 35.8996 32.696 36.1076 33.304C36.3316 33.912 36.6516 34.408 37.0676 34.792C37.4836 35.16 38.0116 35.344 38.6516 35.344C39.1636 35.344 39.5716 35.248 39.8756 35.056C40.1956 34.864 40.4276 34.584 40.5716 34.216C40.7156 33.848 40.7876 33.416 40.7876 32.92H44.6756ZM38.3876 25.912C37.7796 25.912 37.2836 26.088 36.8996 26.44C36.5316 26.776 36.2596 27.224 36.0836 27.784C35.9076 28.328 35.7876 28.912 35.7236 29.536H41.0516C41.0516 28.864 40.9636 28.256 40.7876 27.712C40.6276 27.168 40.3556 26.736 39.9716 26.416C39.5876 26.08 39.0596 25.912 38.3876 25.912ZM52.6481 35.368C53.0321 35.368 53.3681 35.312 53.6561 35.2C53.9441 35.088 54.1681 34.912 54.3281 34.672C54.4881 34.432 54.5681 34.12 54.5681 33.736C54.5681 33.4 54.4721 33.128 54.2801 32.92C54.0881 32.696 53.8401 32.512 53.5361 32.368C53.2321 32.224 52.8961 32.112 52.5281 32.032C52.1601 31.936 51.8001 31.848 51.4481 31.768C50.8081 31.624 50.2081 31.448 49.6481 31.24C49.1041 31.032 48.6241 30.776 48.2081 30.472C47.8081 30.168 47.4881 29.808 47.2481 29.392C47.0241 28.96 46.9121 28.464 46.9121 27.904C46.9121 26.992 47.1761 26.248 47.7041 25.672C48.2481 25.096 48.9441 24.672 49.7921 24.4C50.6401 24.128 51.5281 23.992 52.4561 23.992C53.5121 23.992 54.4801 24.12 55.3601 24.376C56.2401 24.632 56.9441 25.048 57.4721 25.624C58.0001 26.184 58.2641 26.952 58.2641 27.928V28.168H54.4961C54.4961 27.688 54.4241 27.28 54.2801 26.944C54.1361 26.592 53.9041 26.328 53.5841 26.152C53.2801 25.96 52.8881 25.864 52.4081 25.864C52.0881 25.864 51.7921 25.92 51.5201 26.032C51.2641 26.144 51.0561 26.312 50.8961 26.536C50.7521 26.76 50.6801 27.04 50.6801 27.376C50.6801 27.696 50.7841 27.976 50.9921 28.216C51.2001 28.44 51.5121 28.632 51.9281 28.792C52.3441 28.952 52.8561 29.104 53.4641 29.248C53.9441 29.36 54.4721 29.496 55.0481 29.656C55.6241 29.8 56.1681 30.016 56.6801 30.304C57.2081 30.576 57.6321 30.944 57.9521 31.408C58.2881 31.856 58.4561 32.44 58.4561 33.16C58.4561 34.168 58.1761 34.968 57.6161 35.56C57.0721 36.152 56.3521 36.584 55.4561 36.856C54.5761 37.112 53.6321 37.24 52.6241 37.24C51.5681 37.24 50.5921 37.12 49.6961 36.88C48.8001 36.624 48.0801 36.2 47.5361 35.608C46.9921 35 46.7201 34.176 46.7201 33.136V32.776H50.6081C50.6081 33.256 50.6721 33.696 50.8001 34.096C50.9281 34.48 51.1361 34.792 51.4241 35.032C51.7281 35.256 52.1361 35.368 52.6481 35.368ZM74.4196 30.64C74.4196 32.016 74.1076 33.2 73.4836 34.192C72.8756 35.168 72.0356 35.92 70.9636 36.448C69.9076 36.976 68.7156 37.24 67.3876 37.24C66.5556 37.24 65.7716 37.136 65.0356 36.928C64.3156 36.72 63.6596 36.416 63.0676 36.016L61.7476 37.24L60.3316 35.848L61.6036 34.648C61.2036 34.12 60.8916 33.52 60.6676 32.848C60.4596 32.176 60.3556 31.44 60.3556 30.64C60.3556 29.264 60.6596 28.08 61.2676 27.088C61.8916 26.096 62.7316 25.336 63.7876 24.808C64.8596 24.28 66.0596 24.016 67.3876 24.016C68.2196 24.016 69.0036 24.12 69.7396 24.328C70.4756 24.536 71.1396 24.84 71.7316 25.24L73.0276 24.04L74.4436 25.432L73.1716 26.632C73.5716 27.16 73.8756 27.76 74.0836 28.432C74.3076 29.104 74.4196 29.84 74.4196 30.64ZM64.3636 30.64C64.3636 31.104 64.3876 31.568 64.4356 32.032L69.6676 27.16C69.4276 26.776 69.1236 26.472 68.7556 26.248C68.3876 26.024 67.9316 25.912 67.3876 25.912C66.6036 25.912 65.9876 26.136 65.5396 26.584C65.1076 27.032 64.8036 27.616 64.6276 28.336C64.4516 29.056 64.3636 29.824 64.3636 30.64ZM70.4116 30.64C70.4116 30.16 70.3876 29.696 70.3396 29.248L65.1076 34.12C65.3476 34.488 65.6516 34.784 66.0196 35.008C66.3876 35.232 66.8436 35.344 67.3876 35.344C68.1716 35.344 68.7796 35.12 69.2116 34.672C69.6596 34.224 69.9716 33.64 70.1476 32.92C70.3236 32.2 70.4116 31.44 70.4116 30.64ZM82.9936 42.376C81.6976 42.376 80.5696 42.2 79.6096 41.848C78.6656 41.512 77.9296 41.008 77.4016 40.336C76.8736 39.68 76.6096 38.872 76.6096 37.912V37.72H80.4976C80.4816 38.584 80.6976 39.256 81.1456 39.736C81.5936 40.216 82.2496 40.456 83.1136 40.456C83.9296 40.456 84.5536 40.296 84.9856 39.976C85.4336 39.656 85.7376 39.2 85.8976 38.608C86.0736 38.016 86.1616 37.312 86.1616 36.496V34.648C85.8096 35.256 85.2896 35.736 84.6016 36.088C83.9296 36.44 83.0736 36.616 82.0336 36.616C80.8016 36.616 79.7376 36.344 78.8416 35.8C77.9456 35.24 77.2576 34.488 76.7776 33.544C76.3136 32.584 76.0816 31.512 76.0816 30.328C76.0816 29.16 76.3136 28.104 76.7776 27.16C77.2576 26.2 77.9296 25.44 78.7936 24.88C79.6736 24.304 80.7136 24.016 81.9136 24.016C82.8416 24.016 83.6816 24.192 84.4336 24.544C85.1856 24.88 85.7616 25.376 86.1616 26.032L86.5456 24.256H90.0496V36.136C90.0496 37.56 89.7536 38.728 89.1616 39.64C88.5856 40.568 87.7696 41.256 86.7136 41.704C85.6576 42.152 84.4176 42.376 82.9936 42.376ZM83.1376 34.312C83.8736 34.312 84.4576 34.12 84.8896 33.736C85.3376 33.352 85.6576 32.856 85.8496 32.248C86.0576 31.624 86.1616 30.968 86.1616 30.28C86.1616 29.592 86.0576 28.944 85.8496 28.336C85.6576 27.712 85.3376 27.208 84.8896 26.824C84.4416 26.44 83.8496 26.248 83.1136 26.248C82.3936 26.248 81.8096 26.44 81.3616 26.824C80.9136 27.208 80.5856 27.712 80.3776 28.336C80.1856 28.944 80.0896 29.592 80.0896 30.28C80.0896 30.952 80.1936 31.6 80.4016 32.224C80.6096 32.832 80.9376 33.336 81.3856 33.736C81.8336 34.12 82.4176 34.312 83.1376 34.312ZM105.804 35.368C106.188 35.368 106.524 35.312 106.812 35.2C107.1 35.088 107.324 34.912 107.484 34.672C107.644 34.432 107.724 34.12 107.724 33.736C107.724 33.4 107.628 33.128 107.436 32.92C107.244 32.696 106.996 32.512 106.692 32.368C106.388 32.224 106.052 32.112 105.684 32.032C105.316 31.936 104.956 31.848 104.604 31.768C103.964 31.624 103.364 31.448 102.804 31.24C102.26 31.032 101.78 30.776 101.364 30.472C100.964 30.168 100.644 29.808 100.404 29.392C100.18 28.96 100.068 28.464 100.068 27.904C100.068 26.992 100.332 26.248 100.86 25.672C101.404 25.096 102.1 24.672 102.948 24.4C103.796 24.128 104.684 23.992 105.612 23.992C106.668 23.992 107.636 24.12 108.516 24.376C109.396 24.632 110.1 25.048 110.628 25.624C111.156 26.184 111.42 26.952 111.42 27.928V28.168H107.652C107.652 27.688 107.58 27.28 107.436 26.944C107.292 26.592 107.06 26.328 106.74 26.152C106.436 25.96 106.044 25.864 105.564 25.864C105.244 25.864 104.948 25.92 104.676 26.032C104.42 26.144 104.212 26.312 104.052 26.536C103.908 26.76 103.836 27.04 103.836 27.376C103.836 27.696 103.94 27.976 104.148 28.216C104.356 28.44 104.668 28.632 105.084 28.792C105.5 28.952 106.012 29.104 106.62 29.248C107.1 29.36 107.628 29.496 108.204 29.656C108.78 29.8 109.324 30.016 109.836 30.304C110.364 30.576 110.788 30.944 111.108 31.408C111.444 31.856 111.612 32.44 111.612 33.16C111.612 34.168 111.332 34.968 110.772 35.56C110.228 36.152 109.508 36.584 108.612 36.856C107.732 37.112 106.788 37.24 105.78 37.24C104.724 37.24 103.748 37.12 102.852 36.88C101.956 36.624 101.236 36.2 100.692 35.608C100.148 35 99.8763 34.176 99.8763 33.136V32.776H103.764C103.764 33.256 103.828 33.696 103.956 34.096C104.084 34.48 104.292 34.792 104.58 35.032C104.884 35.256 105.292 35.368 105.804 35.368ZM118.936 20.32C118.936 20.944 118.712 21.472 118.264 21.904C117.816 22.336 117.28 22.552 116.656 22.552C116.048 22.552 115.52 22.336 115.072 21.904C114.64 21.472 114.424 20.944 114.424 20.32C114.424 19.712 114.64 19.192 115.072 18.76C115.52 18.328 116.048 18.112 116.656 18.112C117.28 18.112 117.816 18.328 118.264 18.76C118.712 19.192 118.936 19.712 118.936 20.32ZM114.736 37V24.256H118.624V37H114.736ZM131.873 37L131.489 35.104C131.169 35.664 130.649 36.16 129.929 36.592C129.209 37.024 128.329 37.24 127.289 37.24C126.057 37.24 125.001 36.952 124.121 36.376C123.257 35.784 122.593 34.992 122.129 34C121.681 33.008 121.457 31.888 121.457 30.64C121.457 29.424 121.689 28.32 122.153 27.328C122.633 26.32 123.313 25.52 124.193 24.928C125.073 24.32 126.113 24.016 127.313 24.016C128.305 24.016 129.153 24.192 129.857 24.544C130.577 24.896 131.129 25.352 131.513 25.912V18.592H135.401V37H131.873ZM125.465 30.568C125.465 31.288 125.561 31.984 125.753 32.656C125.961 33.328 126.289 33.88 126.737 34.312C127.185 34.744 127.769 34.96 128.489 34.96C129.209 34.96 129.793 34.744 130.241 34.312C130.689 33.88 131.017 33.328 131.225 32.656C131.433 31.984 131.537 31.288 131.537 30.568C131.537 29.832 131.433 29.136 131.225 28.48C131.017 27.808 130.689 27.264 130.241 26.848C129.793 26.416 129.209 26.2 128.489 26.2C127.769 26.2 127.185 26.416 126.737 26.848C126.289 27.264 125.961 27.808 125.753 28.48C125.561 29.136 125.465 29.832 125.465 30.568ZM150.918 32.92C150.918 33.96 150.63 34.8 150.054 35.44C149.494 36.064 148.75 36.52 147.822 36.808C146.91 37.096 145.934 37.24 144.894 37.24C143.502 37.24 142.278 36.984 141.222 36.472C140.182 35.944 139.366 35.184 138.774 34.192C138.198 33.2 137.91 32.016 137.91 30.64C137.91 29.28 138.182 28.104 138.726 27.112C139.286 26.12 140.07 25.36 141.078 24.832C142.086 24.288 143.27 24.016 144.63 24.016C146.614 24.016 148.182 24.568 149.334 25.672C150.502 26.76 151.086 28.296 151.086 30.28C151.086 30.456 151.078 30.64 151.062 30.832C151.062 31.024 151.054 31.216 151.038 31.408H141.942C142.006 32.064 142.142 32.696 142.35 33.304C142.574 33.912 142.894 34.408 143.31 34.792C143.726 35.16 144.254 35.344 144.894 35.344C145.406 35.344 145.814 35.248 146.118 35.056C146.438 34.864 146.67 34.584 146.814 34.216C146.958 33.848 147.03 33.416 147.03 32.92H150.918ZM144.63 25.912C144.022 25.912 143.526 26.088 143.142 26.44C142.774 26.776 142.502 27.224 142.326 27.784C142.15 28.328 142.03 28.912 141.966 29.536H147.294C147.294 28.864 147.206 28.256 147.03 27.712C146.87 27.168 146.598 26.736 146.214 26.416C145.83 26.08 145.302 25.912 144.63 25.912Z" fill="white"/>
</svg>
