<svg width="297" height="188" viewBox="0 0 297 188" fill="none" xmlns="http://www.w3.org/2000/svg">
<path d="M295.121 1.5H1.5V186.5H295.121V1.5Z" fill="#A9D7AD" stroke="#231F20" stroke-width="3" stroke-miterlimit="10"/>
<path d="M234.324 147.603C234.324 147.603 226.54 140.051 231.505 127.198C231.505 127.198 246.175 136.986 243.813 146.153C241.45 155.32 234.324 147.611 234.324 147.611V147.603Z" fill="#2FB44A" stroke="#231F20" stroke-width="3" stroke-miterlimit="10"/>
<path d="M253.741 148.568C253.741 148.568 260.964 140.306 255.327 127.198C255.327 127.198 244.126 134.623 244.073 148.568C244.021 162.513 253.734 148.568 253.734 148.568H253.741Z" fill="#2FB44A" stroke="#231F20" stroke-width="3" stroke-miterlimit="10"/>
<path d="M274.095 168.944H15.6318" stroke="#231F20" stroke-width="3" stroke-miterlimit="10"/>
<path d="M33.9284 167.98V164.136C33.9284 164.136 34.3994 162.656 37.2108 162.529C40.0223 162.402 58.5058 162.529 58.5058 162.529C58.5058 162.529 60.2779 162.663 60.4125 164.585C60.5471 166.507 60.4125 167.98 60.4125 167.98H33.9209H33.9284Z" fill="#C2CEE9" stroke="#231F20" stroke-width="3" stroke-miterlimit="10"/>
<path d="M43.7305 161.676V146.153C43.7305 146.153 44.4184 144.673 45.8988 144.687C47.3793 144.702 49.0019 144.687 49.0019 144.687C49.0019 144.687 50.3328 144.418 50.3253 146.19C50.3179 147.962 50.3253 161.683 50.3253 161.683H43.7305V161.676Z" fill="#C2CEE9" stroke="#231F20" stroke-width="3" stroke-miterlimit="10"/>
<path d="M47.029 143.948V64.2336L16.5596 77.5205L76.7507 51.2458C76.7507 51.2458 78.6798 49.4812 78.7995 54.8049C78.9191 60.1286 78.7995 67.6731 78.7995 67.6731" stroke="#231F20" stroke-width="3" stroke-miterlimit="10"/>
<path d="M96.2878 68.5483H60.6143V88.2507H96.2878V68.5483Z" fill="#EAEB83" stroke="#231F20" stroke-width="3" stroke-linecap="round" stroke-linejoin="round"/>
<path d="M82.0139 125.21H69.0635V157.205H82.0139V125.21Z" fill="#83D1D7" stroke="#231F20" stroke-width="3" stroke-linecap="round" stroke-linejoin="round"/>
<path d="M145.039 104.214H82.9482V133.524H145.039V104.214Z" fill="#83D1D7" stroke="#231F20" stroke-width="3" stroke-linecap="round" stroke-linejoin="round"/>
<path d="M209.141 104.214H147.059V133.524H209.141V104.214Z" fill="#83D1D7" stroke="#231F20" stroke-width="3" stroke-linecap="round" stroke-linejoin="round"/>
<path d="M223.483 125.127H210.51V157.249H223.483V125.127Z" fill="#83D1D7" stroke="#231F20" stroke-width="3" stroke-linecap="round" stroke-linejoin="round"/>
<path d="M209.133 146.154H82.9482V156.495H209.133V146.154Z" fill="#83D1D7" stroke="#231F20" stroke-width="3" stroke-linecap="round" stroke-linejoin="round"/>
<path d="M146.041 133.524H82.9482V146.153H146.041V133.524Z" fill="#83D1D7" stroke="#231F20" stroke-width="3" stroke-linecap="round" stroke-linejoin="round"/>
<path d="M209.142 133.524H146.633V146.153H209.142V133.524Z" fill="#83D1D7" stroke="#231F20" stroke-width="3" stroke-linecap="round" stroke-linejoin="round"/>
<path d="M94.5611 157.205H87.0391V167.979H94.5611V157.205Z" fill="#F9A348" stroke="#231F20" stroke-width="3" stroke-miterlimit="10"/>
<path d="M205.111 157.332H197.589V168.107H205.111V157.332Z" fill="#F9A348" stroke="#231F20" stroke-width="3" stroke-miterlimit="10"/>
<path d="M209.141 80.6763H119.685V86.0972H209.141V80.6763Z" fill="#BA6028" stroke="#231F20" stroke-width="3" stroke-linecap="round" stroke-linejoin="round"/>
<path d="M163.269 41.9521H137.562V80.6764H163.269V41.9521Z" fill="white" stroke="#231F20" stroke-width="3" stroke-linecap="round" stroke-linejoin="round"/>
<path d="M160.375 49.145H145.047V72.7803H160.375V49.145Z" fill="#2FB44A" stroke="#231F20" stroke-width="3" stroke-linecap="round" stroke-linejoin="round"/>
<path d="M202.523 16.1328H156.636V80.6757H202.523V16.1328Z" fill="white" stroke="#231F20" stroke-width="3" stroke-linecap="round" stroke-linejoin="round"/>
<path d="M194.023 24.582H164.413V72.7798H194.023V24.582Z" fill="#2FB44A" stroke="#231F20" stroke-width="3" stroke-linecap="round" stroke-linejoin="round"/>
<path d="M243.82 111.444C243.82 111.444 225.404 134.339 243.82 154.027C243.82 154.027 260.172 130.302 243.82 111.444Z" fill="#2FB44A" stroke="#231F20" stroke-width="3" stroke-miterlimit="10"/>
<path d="M231.057 148.569H256.016C256.016 148.569 262.64 160.315 253.944 168.107H233.061C233.061 168.107 225.92 160.936 231.049 148.569H231.057Z" fill="#F9A348" stroke="#231F20" stroke-width="3" stroke-miterlimit="10"/>
</svg>
